<svg width="50" height="56" viewBox="0 0 50 56" fill="none" xmlns="http://www.w3.org/2000/svg">
<g clip-path="url(#clip0_38_160)">
<path d="M49.9975 16.4482C49.9971 15.5075 49.795 14.6762 49.3863 13.9628C48.9849 13.2613 48.3837 12.6733 47.5773 12.2084C40.9209 8.38732 34.2581 4.57796 27.6039 0.753025C25.8099 -0.278048 24.0706 -0.240458 22.2899 0.805416C19.6405 2.36098 6.37564 9.92692 2.4229 12.2062C0.795048 13.1444 0.00293448 14.5802 0.00254322 16.4464C0 24.1308 0.00254322 31.8149 0 39.4995C0 40.4195 0.193871 41.2346 0.584548 41.9373C0.986181 42.6601 1.59577 43.2642 2.42075 43.7396C6.37369 46.0189 19.6403 53.5843 22.2891 55.1402C24.0706 56.1867 25.8099 56.2241 27.6044 55.1926C34.2589 51.3675 40.9221 47.5583 47.5794 43.7373C48.4044 43.2621 49.014 42.6575 49.4156 41.9354C49.8057 41.2327 50 40.4176 50 39.4973C50 39.4973 50 24.1327 49.9975 16.4482Z" fill="#649AD2"/>
<path d="M25.0765 27.8981L0.584595 41.9373C0.986227 42.6601 1.59582 43.2642 2.4208 43.7397C6.37373 46.019 19.6403 53.5843 22.2892 55.1403C24.0706 56.1867 25.81 56.2241 27.6045 55.1927C34.2589 51.3675 40.9221 47.5584 47.5795 43.7373C48.4045 43.2621 49.0141 42.6576 49.4157 41.9354L25.0765 27.8981Z" fill="#004482"/>
<path d="M17.8223 32.0566C19.2474 34.5336 21.9266 36.2043 25 36.2043C28.0924 36.2043 30.7868 34.5124 32.2047 32.0089L25.0765 27.8981L17.8223 32.0566Z" fill="#1A4674"/>
<path d="M49.9975 16.4481C49.9971 15.5074 49.795 14.6762 49.3863 13.9628L25.0765 27.898L49.4157 41.9353C49.8058 41.2326 49.9997 40.4175 50 39.4973C50 39.4973 50 24.1327 49.9975 16.4481Z" fill="#01589C"/>
<path d="M48.6592 28.9015H46.7572V30.7953H44.8549V28.9015H42.9532V27.0082H44.8549V25.1147H46.7572V27.0082H48.6592V28.9015ZM25 11.4426C31.081 11.4426 36.398 14.6976 39.2909 19.5525L39.3778 19.7001L32.1509 23.8431C30.7187 21.3914 28.0536 19.7416 25 19.7416C20.4338 19.7416 16.7318 23.4269 16.7318 27.9728C16.7318 29.4595 17.1299 30.853 17.8223 32.0566C19.2475 34.5336 21.9266 36.2043 25 36.2043C28.0584 36.2043 30.7275 34.5494 32.1575 32.0911L32.2047 32.0089L39.4208 36.1712C36.5597 41.1483 31.1732 44.5033 25 44.5033C18.8382 44.5033 13.4601 41.1618 10.5949 36.1992C9.19608 33.7766 8.39575 30.9679 8.39575 27.9728C8.39575 18.8435 15.8296 11.4426 25 11.4426ZM39.8174 25.1147V27.0082H41.7191V28.9015H39.8174V30.7953H37.9154V28.9015H36.0135V27.0082H37.9154V25.1147H39.8174Z" fill="white"/>
</g>
<defs>
<clipPath id="clip0_38_160">
<rect width="50" height="56" fill="white"/>
</clipPath>
</defs>
</svg>
