<svg width="50" height="56" viewBox="0 0 50 56" fill="none" xmlns="http://www.w3.org/2000/svg">
<g clip-path="url(#clip0_38_34)">
<path d="M49.9975 16.6443C49.9971 15.7034 49.7949 14.8721 49.3863 14.1587C48.985 13.4569 48.3836 12.869 47.5773 12.4039C40.9209 8.58247 34.258 4.77266 27.6039 0.947302C25.81 -0.0837377 24.0705 -0.0462418 22.2898 0.999757C19.6404 2.55554 6.37559 10.1223 2.42285 12.4018C0.795117 13.3402 0.00292969 14.7761 0.00253906 16.6425C0 24.3278 0.00253906 32.0127 0 39.6982C0.000390625 40.6183 0.193945 41.4335 0.58457 42.1364C0.986133 42.8591 1.5957 43.4633 2.4207 43.9389C6.37363 46.2184 19.6402 53.7846 22.2891 55.3408C24.0705 56.3874 25.81 56.4247 27.6045 55.3932C34.2588 51.5677 40.9221 47.7581 47.5795 43.9366C48.4045 43.4612 49.0141 42.8566 49.4156 42.1345C49.8057 41.4316 49.9996 40.6164 50 39.6961C50 39.6961 50 24.3298 49.9975 16.6443Z" fill="#A9B9CB"/>
<path d="M27.5588 0.997433C25.7678 -0.0310807 24.0313 0.00641525 22.2535 1.04969C19.6084 2.6014 6.36523 10.1486 2.41895 12.4222C0.79375 13.3581 0.00292969 14.7903 0.00253906 16.6519C0 24.3171 0.00253906 31.9822 0 39.6477C0.000390625 40.5655 0.193555 41.3785 0.583594 42.0795C0.98457 42.8005 1.59316 43.4031 2.4168 43.8774C3.3209 44.3982 4.71348 45.1961 6.3541 46.1349L42.8955 9.78681C37.7826 6.85825 32.6684 3.93202 27.5588 0.997433Z" fill="#7F8B99"/>
<path d="M30.1672 24.6672L37.9483 24.7218C37.9483 21.497 34.6667 13.5995 25.2583 13.5995C19.2639 13.5995 11.2053 17.3903 11.2053 28.289C11.2053 39.1875 19.1051 42.7414 25.2583 42.7414C35.2225 42.7414 37.604 35.883 37.604 32.0071L30.1807 31.5849C30.1807 31.5849 30.3793 36.0679 25.2186 36.0679C20.4549 36.0679 19.66 30.2633 19.66 28.289C19.66 25.288 20.7329 20.4704 25.2186 20.4704C29.7045 20.4704 30.1672 24.6672 30.1672 24.6672Z" fill="white"/>
</g>
<defs>
<clipPath id="clip0_38_34">
<rect width="50" height="55.9524" fill="white"/>
</clipPath>
</defs>
</svg>
