<svg width="30" height="24" viewBox="0 0 30 24" fill="none" xmlns="http://www.w3.org/2000/svg">
<path d="M29.9226 3.35233C29.7874 2.67112 29.4853 2.04774 29.0635 1.53276C28.9745 1.42055 28.8816 1.32006 28.7809 1.21957C28.0335 0.468517 26.9846 0 25.8387 0H4.1614C3.01547 0 1.97028 0.468517 1.2194 1.21957C1.11891 1.32006 1.02598 1.42055 0.936799 1.53276C0.514747 2.04768 0.212696 2.67112 0.0812111 3.35233C0.0271876 3.61524 0 3.88694 0 4.16163V19.3862C0 19.9703 0.123867 20.5318 0.344766 21.0388C0.549669 21.5228 0.851779 21.9607 1.21934 22.3279C1.3125 22.4208 1.40502 22.5063 1.50598 22.5912C2.22586 23.1874 3.1551 23.5475 4.1614 23.5475H25.8387C26.8453 23.5475 27.7786 23.1874 28.4943 22.5875C28.595 22.5063 28.688 22.4208 28.7809 22.3279C29.1483 21.9607 29.4503 21.5228 29.6595 21.0388V21.035C29.8803 20.528 30 19.9703 30 19.3863V4.16163C30.0001 3.88694 29.9733 3.61524 29.9226 3.35233ZM2.72514 2.72514C3.09692 2.35377 3.5962 2.12895 4.1614 2.12895H25.8387C26.4039 2.12895 26.9075 2.35377 27.2749 2.72514C27.3407 2.79129 27.4026 2.86501 27.4573 2.93825L16.0955 12.8403C15.7821 13.1149 15.3951 13.2506 15 13.2506C14.609 13.2506 14.2221 13.1149 13.9046 12.8403L2.54719 2.93403C2.59747 2.86079 2.6594 2.79129 2.72514 2.72514ZM2.12895 19.3862V5.1371L10.3511 12.3099L2.13311 19.475C2.12895 19.4478 2.12895 19.4172 2.12895 19.3862ZM25.8387 21.4181H4.1614C3.79337 21.4181 3.44901 21.3214 3.1551 21.1514L11.8257 13.5952L12.6352 14.2994C13.3126 14.888 14.1603 15.1861 15 15.1861C15.8441 15.1861 16.6918 14.888 17.3691 14.2994L18.1782 13.5952L26.8454 21.1514C26.551 21.3214 26.2067 21.4181 25.8387 21.4181ZM27.8711 19.3862C27.8711 19.4172 27.8711 19.4478 27.8671 19.475L19.6492 12.314L27.8711 5.14091V19.3862Z" fill="white"/>
</svg>
