<svg width="50" height="50" viewBox="0 0 50 50" fill="none" xmlns="http://www.w3.org/2000/svg">
<path d="M50 25C50 38.8071 38.8071 50 25 50C11.1929 50 0 38.8071 0 25C0 11.1929 11.1929 0 25 0C38.8071 0 50 11.1929 50 25Z" fill="black"/>
<path d="M27.8541 22.9821L39.0223 10H36.3758L26.6784 21.2722L18.9332 10H10L21.7123 27.0455L10 40.6593H12.6466L22.8873 28.7555L31.0668 40.6593H40L27.8534 22.9821H27.8541ZM24.2291 27.1957L23.0424 25.4984L13.6003 11.9924H17.6654L25.2853 22.8921L26.472 24.5895L36.377 38.7575H32.3119L24.2291 27.1964V27.1957Z" fill="white"/>
</svg>
